<?xml version="1.0" encoding="UTF-8" standalone="no"?><svg xmlns="http://www.w3.org/2000/svg" xmlns:xlink="http://www.w3.org/1999/xlink" contentScriptType="application/ecmascript" contentStyleType="text/css" height="497px" preserveAspectRatio="none" style="width:1889px;height:497px;" version="1.1" viewBox="0 0 1889 497" width="1889px" zoomAndPan="magnify"><defs><filter height="300%" id="f1jwycw6ksx4ds" width="300%" x="-1" y="-1"><feGaussianBlur result="blurOut" stdDeviation="2.0"/><feColorMatrix in="blurOut" result="blurOut2" type="matrix" values="0 0 0 0 0 0 0 0 0 0 0 0 0 0 0 0 0 0 .4 0"/><feOffset dx="4.0" dy="4.0" in="blurOut2" result="blurOut3"/><feBlend in="SourceGraphic" in2="blurOut3" mode="normal"/></filter></defs><g><!--MD5=[9d985fc297cd5fc99eda698ac641cfef]
class PizzaTestDrive--><a href="java:appli.PizzaTestDrive" target="_top" title="java:appli.PizzaTestDrive" xlink:actuate="onRequest" xlink:href="java:appli.PizzaTestDrive" xlink:show="new" xlink:title="java:appli.PizzaTestDrive" xlink:type="simple"><rect codeLine="1" fill="#FEFECE" filter="url(#f1jwycw6ksx4ds)" height="60.9551" id="PizzaTestDrive" style="stroke: #A80036; stroke-width: 1.5;" width="153" x="366.5" y="59"/><ellipse cx="397.25" cy="75" fill="#ADD1B2" rx="11" ry="11" style="stroke: #A80036; stroke-width: 1.0;"/><path d="M399.7231,81.1431 Q399.1421,81.4419 398.5029,81.5913 Q397.8638,81.7407 397.1582,81.7407 Q394.6514,81.7407 393.3315,80.0889 Q392.0117,78.437 392.0117,75.3159 Q392.0117,72.1865 393.3315,70.5347 Q394.6514,68.8828 397.1582,68.8828 Q397.8638,68.8828 398.5112,69.0322 Q399.1587,69.1816 399.7231,69.4805 L399.7231,72.2031 Q399.0923,71.6221 398.4988,71.3523 Q397.9053,71.0825 397.2744,71.0825 Q395.9297,71.0825 395.2449,72.1492 Q394.5601,73.2158 394.5601,75.3159 Q394.5601,77.4077 395.2449,78.4744 Q395.9297,79.541 397.2744,79.541 Q397.9053,79.541 398.4988,79.2712 Q399.0923,79.0015 399.7231,78.4204 Z "/><text fill="#000000" font-family="sans-serif" font-size="12" lengthAdjust="spacingAndGlyphs" textLength="86" x="414.75" y="79.5352">PizzaTestDrive</text><line style="stroke: #A80036; stroke-width: 1.5;" x1="367.5" x2="518.5" y1="91" y2="91"/><line style="stroke: #A80036; stroke-width: 1.5;" x1="367.5" x2="518.5" y1="99" y2="99"/><ellipse cx="377.5" cy="110" fill="#84BE84" rx="3" ry="3" style="stroke: #038048; stroke-width: 1.0;"/><text fill="#000000" font-family="sans-serif" font-size="11" lengthAdjust="spacingAndGlyphs" text-decoration="underline" textLength="127" x="386.5" y="113.6348">void main(String[] args)</text></a><!--MD5=[5c5a2dd8ed299478ae091ad6bda6d6bd]
class Pizza--><a href="java:pizza.Pizza" target="_top" title="java:pizza.Pizza" xlink:actuate="onRequest" xlink:href="java:pizza.Pizza" xlink:show="new" xlink:title="java:pizza.Pizza" xlink:type="simple"><rect codeLine="67" fill="#FEFECE" filter="url(#f1jwycw6ksx4ds)" height="164.5957" id="Pizza" style="stroke: #A80036; stroke-width: 1.5;" width="184" x="555" y="7"/><ellipse cx="627.25" cy="23" fill="#ADD1B2" rx="11" ry="11" style="stroke: #A80036; stroke-width: 1.0;"/><path d="M629.7231,29.1431 Q629.1421,29.4419 628.5029,29.5913 Q627.8638,29.7407 627.1582,29.7407 Q624.6514,29.7407 623.3315,28.0889 Q622.0117,26.437 622.0117,23.3159 Q622.0117,20.1865 623.3315,18.5347 Q624.6514,16.8828 627.1582,16.8828 Q627.8638,16.8828 628.5112,17.0322 Q629.1587,17.1816 629.7231,17.4805 L629.7231,20.2031 Q629.0923,19.6221 628.4988,19.3523 Q627.9053,19.0825 627.2744,19.0825 Q625.9297,19.0825 625.2449,20.1492 Q624.5601,21.2158 624.5601,23.3159 Q624.5601,25.4077 625.2449,26.4744 Q625.9297,27.541 627.2744,27.541 Q627.9053,27.541 628.4988,27.2712 Q629.0923,27.0015 629.7231,26.4204 Z "/><text fill="#000000" font-family="sans-serif" font-size="12" lengthAdjust="spacingAndGlyphs" textLength="31" x="647.75" y="27.5352">Pizza</text><line style="stroke: #A80036; stroke-width: 1.5;" x1="556" x2="738" y1="39" y2="39"/><polygon fill="none" points="566,45,570,49,566,53,562,49" style="stroke: #B38D22; stroke-width: 1.0;"/><text fill="#000000" font-family="sans-serif" font-size="11" lengthAdjust="spacingAndGlyphs" textLength="64" x="575" y="53.6348">String name</text><polygon fill="none" points="566,57.9551,570,61.9551,566,65.9551,562,61.9551" style="stroke: #B38D22; stroke-width: 1.0;"/><text fill="#000000" font-family="sans-serif" font-size="11" lengthAdjust="spacingAndGlyphs" textLength="63" x="575" y="66.5898">String crust</text><polygon fill="none" points="566,70.9102,570,74.9102,566,78.9102,562,74.9102" style="stroke: #B38D22; stroke-width: 1.0;"/><text fill="#000000" font-family="sans-serif" font-size="11" lengthAdjust="spacingAndGlyphs" textLength="66" x="575" y="79.5449">String sauce</text><polygon fill="none" points="566,83.8652,570,87.8652,566,91.8652,562,87.8652" style="stroke: #B38D22; stroke-width: 1.0;"/><text fill="#000000" font-family="sans-serif" font-size="11" lengthAdjust="spacingAndGlyphs" textLength="158" x="575" y="92.5">ArrayList&lt;String&gt; garnitures</text><line style="stroke: #A80036; stroke-width: 1.5;" x1="556" x2="738" y1="98.8203" y2="98.8203"/><ellipse cx="566" cy="109.8203" fill="#84BE84" rx="3" ry="3" style="stroke: #038048; stroke-width: 1.0;"/><text fill="#000000" font-family="sans-serif" font-size="11" lengthAdjust="spacingAndGlyphs" textLength="76" x="575" y="113.4551">void prepare()</text><ellipse cx="566" cy="122.7754" fill="#84BE84" rx="3" ry="3" style="stroke: #038048; stroke-width: 1.0;"/><text fill="#000000" font-family="sans-serif" font-size="11" lengthAdjust="spacingAndGlyphs" textLength="59" x="575" y="126.4102">void bake()</text><ellipse cx="566" cy="135.7305" fill="#84BE84" rx="3" ry="3" style="stroke: #038048; stroke-width: 1.0;"/><text fill="#000000" font-family="sans-serif" font-size="11" lengthAdjust="spacingAndGlyphs" textLength="51" x="575" y="139.3652">void cut()</text><ellipse cx="566" cy="148.6855" fill="#84BE84" rx="3" ry="3" style="stroke: #038048; stroke-width: 1.0;"/><text fill="#000000" font-family="sans-serif" font-size="11" lengthAdjust="spacingAndGlyphs" textLength="60" x="575" y="152.3203">void wrap()</text><ellipse cx="566" cy="161.6406" fill="#84BE84" rx="3" ry="3" style="stroke: #038048; stroke-width: 1.0;"/><text fill="#000000" font-family="sans-serif" font-size="11" lengthAdjust="spacingAndGlyphs" textLength="90" x="575" y="165.2754">String getName()</text></a><!--MD5=[0eb02f19a87ed51efbd613dcd030c06b]
class PizzaFactory--><a href="java:pizza.factory.PizzaFactory" target="_top" title="java:pizza.factory.PizzaFactory" xlink:actuate="onRequest" xlink:href="java:pizza.factory.PizzaFactory" xlink:show="new" xlink:title="java:pizza.factory.PizzaFactory" xlink:type="simple"><rect codeLine="75" fill="#FEFECE" filter="url(#f1jwycw6ksx4ds)" height="60.9551" id="PizzaFactory" style="stroke: #A80036; stroke-width: 1.5;" width="161" x="1291.5" y="255.5"/><ellipse cx="1332.15" cy="271.5" fill="#ADD1B2" rx="11" ry="11" style="stroke: #A80036; stroke-width: 1.0;"/><path d="M1334.6231,277.6431 Q1334.0421,277.9419 1333.4029,278.0913 Q1332.7638,278.2407 1332.0582,278.2407 Q1329.5514,278.2407 1328.2315,276.5889 Q1326.9117,274.937 1326.9117,271.8159 Q1326.9117,268.6865 1328.2315,267.0347 Q1329.5514,265.3828 1332.0582,265.3828 Q1332.7638,265.3828 1333.4112,265.5322 Q1334.0587,265.6816 1334.6231,265.9805 L1334.6231,268.7031 Q1333.9923,268.1221 1333.3988,267.8523 Q1332.8053,267.5825 1332.1744,267.5825 Q1330.8297,267.5825 1330.1449,268.6492 Q1329.4601,269.7158 1329.4601,271.8159 Q1329.4601,273.9077 1330.1449,274.9744 Q1330.8297,276.041 1332.1744,276.041 Q1332.8053,276.041 1333.3988,275.7712 Q1333.9923,275.5015 1334.6231,274.9204 Z "/><text fill="#000000" font-family="sans-serif" font-size="12" lengthAdjust="spacingAndGlyphs" textLength="72" x="1351.85" y="276.0352">PizzaFactory</text><line style="stroke: #A80036; stroke-width: 1.5;" x1="1292.5" x2="1451.5" y1="287.5" y2="287.5"/><line style="stroke: #A80036; stroke-width: 1.5;" x1="1292.5" x2="1451.5" y1="295.5" y2="295.5"/><ellipse cx="1302.5" cy="306.5" fill="#84BE84" rx="3" ry="3" style="stroke: #038048; stroke-width: 1.0;"/><text fill="#000000" font-family="sans-serif" font-size="11" font-style="italic" lengthAdjust="spacingAndGlyphs" textLength="135" x="1311.5" y="310.1348">Pizza create(String name)</text></a><!--MD5=[ba32a34a9612c3119673c6551e717b48]
class PizzaFactoryStrasbourg--><a href="java:pizza.factory.impl.PizzaFactoryStrasbourg" target="_top" title="java:pizza.factory.impl.PizzaFactoryStrasbourg" xlink:actuate="onRequest" xlink:href="java:pizza.factory.impl.PizzaFactoryStrasbourg" xlink:show="new" xlink:title="java:pizza.factory.impl.PizzaFactoryStrasbourg" xlink:type="simple"><rect codeLine="18" fill="#FEFECE" filter="url(#f1jwycw6ksx4ds)" height="99.8203" id="PizzaFactoryStrasbourg" style="stroke: #A80036; stroke-width: 1.5;" width="238" x="1124" y="384"/><ellipse cx="1171.75" cy="400" fill="#ADD1B2" rx="11" ry="11" style="stroke: #A80036; stroke-width: 1.0;"/><path d="M1174.2231,406.1431 Q1173.6421,406.4419 1173.0029,406.5913 Q1172.3638,406.7407 1171.6582,406.7407 Q1169.1514,406.7407 1167.8315,405.0889 Q1166.5117,403.437 1166.5117,400.3159 Q1166.5117,397.1865 1167.8315,395.5347 Q1169.1514,393.8828 1171.6582,393.8828 Q1172.3638,393.8828 1173.0112,394.0322 Q1173.6587,394.1816 1174.2231,394.4805 L1174.2231,397.2031 Q1173.5923,396.6221 1172.9988,396.3523 Q1172.4053,396.0825 1171.7744,396.0825 Q1170.4297,396.0825 1169.7449,397.1492 Q1169.0601,398.2158 1169.0601,400.3159 Q1169.0601,402.4077 1169.7449,403.4744 Q1170.4297,404.541 1171.7744,404.541 Q1172.4053,404.541 1172.9988,404.2712 Q1173.5923,404.0015 1174.2231,403.4204 Z "/><text fill="#000000" font-family="sans-serif" font-size="12" lengthAdjust="spacingAndGlyphs" textLength="134" x="1192.25" y="404.5352">PizzaFactoryStrasbourg</text><line style="stroke: #A80036; stroke-width: 1.5;" x1="1125" x2="1361" y1="416" y2="416"/><polygon fill="none" points="1135,423,1131,429,1139,429" style="stroke: #1963A0; stroke-width: 1.0;"/><text fill="#000000" font-family="sans-serif" font-size="11" lengthAdjust="spacingAndGlyphs" text-decoration="underline" textLength="212" x="1144" y="430.6348">PizzaFactoryStrasbourg uniqueInstance</text><line style="stroke: #A80036; stroke-width: 1.5;" x1="1125" x2="1361" y1="436.9551" y2="436.9551"/><polygon fill="#FFFF44" points="1135,442.9551,1139,446.9551,1135,450.9551,1131,446.9551" style="stroke: #B38D22; stroke-width: 1.0;"/><text fill="#000000" font-family="sans-serif" font-size="11" lengthAdjust="spacingAndGlyphs" textLength="135" x="1144" y="451.5898">PizzaFactoryStrasbourg()</text><ellipse cx="1135" cy="460.9102" fill="#84BE84" rx="3" ry="3" style="stroke: #038048; stroke-width: 1.0;"/><text fill="#000000" font-family="sans-serif" font-size="11" lengthAdjust="spacingAndGlyphs" textLength="135" x="1144" y="464.5449">Pizza create(String name)</text><ellipse cx="1135" cy="473.8652" fill="#84BE84" rx="3" ry="3" style="stroke: #038048; stroke-width: 1.0;"/><text fill="#000000" font-family="sans-serif" font-size="11" lengthAdjust="spacingAndGlyphs" text-decoration="underline" textLength="200" x="1144" y="477.5">PizzaFactoryStrasbourg getInstance()</text></a><!--MD5=[b16994f2644afd1f52bf6e618efa7e11]
class PizzaFactoryBrest--><a href="java:pizza.factory.impl.PizzaFactoryBrest" target="_top" title="java:pizza.factory.impl.PizzaFactoryBrest" xlink:actuate="onRequest" xlink:href="java:pizza.factory.impl.PizzaFactoryBrest" xlink:show="new" xlink:title="java:pizza.factory.impl.PizzaFactoryBrest" xlink:type="simple"><rect codeLine="27" fill="#FEFECE" filter="url(#f1jwycw6ksx4ds)" height="99.8203" id="PizzaFactoryBrest" style="stroke: #A80036; stroke-width: 1.5;" width="205" x="1397.5" y="384"/><ellipse cx="1445.25" cy="400" fill="#ADD1B2" rx="11" ry="11" style="stroke: #A80036; stroke-width: 1.0;"/><path d="M1447.7231,406.1431 Q1447.1421,406.4419 1446.5029,406.5913 Q1445.8638,406.7407 1445.1582,406.7407 Q1442.6514,406.7407 1441.3315,405.0889 Q1440.0117,403.437 1440.0117,400.3159 Q1440.0117,397.1865 1441.3315,395.5347 Q1442.6514,393.8828 1445.1582,393.8828 Q1445.8638,393.8828 1446.5112,394.0322 Q1447.1587,394.1816 1447.7231,394.4805 L1447.7231,397.2031 Q1447.0923,396.6221 1446.4988,396.3523 Q1445.9053,396.0825 1445.2744,396.0825 Q1443.9297,396.0825 1443.2449,397.1492 Q1442.5601,398.2158 1442.5601,400.3159 Q1442.5601,402.4077 1443.2449,403.4744 Q1443.9297,404.541 1445.2744,404.541 Q1445.9053,404.541 1446.4988,404.2712 Q1447.0923,404.0015 1447.7231,403.4204 Z "/><text fill="#000000" font-family="sans-serif" font-size="12" lengthAdjust="spacingAndGlyphs" textLength="101" x="1465.75" y="404.5352">PizzaFactoryBrest</text><line style="stroke: #A80036; stroke-width: 1.5;" x1="1398.5" x2="1601.5" y1="416" y2="416"/><polygon fill="none" points="1408.5,423,1404.5,429,1412.5,429" style="stroke: #1963A0; stroke-width: 1.0;"/><text fill="#000000" font-family="sans-serif" font-size="11" lengthAdjust="spacingAndGlyphs" text-decoration="underline" textLength="179" x="1417.5" y="430.6348">PizzaFactoryBrest uniqueInstance</text><line style="stroke: #A80036; stroke-width: 1.5;" x1="1398.5" x2="1601.5" y1="436.9551" y2="436.9551"/><polygon fill="#FFFF44" points="1408.5,442.9551,1412.5,446.9551,1408.5,450.9551,1404.5,446.9551" style="stroke: #B38D22; stroke-width: 1.0;"/><text fill="#000000" font-family="sans-serif" font-size="11" lengthAdjust="spacingAndGlyphs" textLength="102" x="1417.5" y="451.5898">PizzaFactoryBrest()</text><ellipse cx="1408.5" cy="460.9102" fill="#84BE84" rx="3" ry="3" style="stroke: #038048; stroke-width: 1.0;"/><text fill="#000000" font-family="sans-serif" font-size="11" lengthAdjust="spacingAndGlyphs" textLength="135" x="1417.5" y="464.5449">Pizza create(String name)</text><ellipse cx="1408.5" cy="473.8652" fill="#84BE84" rx="3" ry="3" style="stroke: #038048; stroke-width: 1.0;"/><text fill="#000000" font-family="sans-serif" font-size="11" lengthAdjust="spacingAndGlyphs" text-decoration="underline" textLength="167" x="1417.5" y="477.5">PizzaFactoryBrest getInstance()</text></a><!--MD5=[27dda3d5b084600218ed2033686ffa7b]
class PizzaGrecqueStyleStrasbourg--><a href="java:pizza.impl.PizzaGrecqueStyleStrasbourg" target="_top" title="java:pizza.impl.PizzaGrecqueStyleStrasbourg" xlink:actuate="onRequest" xlink:href="java:pizza.impl.PizzaGrecqueStyleStrasbourg" xlink:show="new" xlink:title="java:pizza.impl.PizzaGrecqueStyleStrasbourg" xlink:type="simple"><rect codeLine="36" fill="#FEFECE" filter="url(#f1jwycw6ksx4ds)" height="48" id="PizzaGrecqueStyleStrasbourg" style="stroke: #A80036; stroke-width: 1.5;" width="200" x="7" y="262"/><ellipse cx="22" cy="278" fill="#ADD1B2" rx="11" ry="11" style="stroke: #A80036; stroke-width: 1.0;"/><path d="M24.4731,284.1431 Q23.8921,284.4419 23.2529,284.5913 Q22.6138,284.7407 21.9082,284.7407 Q19.4014,284.7407 18.0815,283.0889 Q16.7617,281.437 16.7617,278.3159 Q16.7617,275.1865 18.0815,273.5347 Q19.4014,271.8828 21.9082,271.8828 Q22.6138,271.8828 23.2612,272.0322 Q23.9087,272.1816 24.4731,272.4805 L24.4731,275.2031 Q23.8423,274.6221 23.2488,274.3523 Q22.6553,274.0825 22.0244,274.0825 Q20.6797,274.0825 19.9949,275.1492 Q19.3101,276.2158 19.3101,278.3159 Q19.3101,280.4077 19.9949,281.4744 Q20.6797,282.541 22.0244,282.541 Q22.6553,282.541 23.2488,282.2712 Q23.8423,282.0015 24.4731,281.4204 Z "/><text fill="#000000" font-family="sans-serif" font-size="12" lengthAdjust="spacingAndGlyphs" textLength="168" x="36" y="282.5352">PizzaGrecqueStyleStrasbourg</text><line style="stroke: #A80036; stroke-width: 1.5;" x1="8" x2="206" y1="294" y2="294"/><line style="stroke: #A80036; stroke-width: 1.5;" x1="8" x2="206" y1="302" y2="302"/></a><!--MD5=[1c29cc28da0e62b01147b8edd28c329f]
class PizzaGrecqueStyleBrest--><a href="java:pizza.impl.PizzaGrecqueStyleBrest" target="_top" title="java:pizza.impl.PizzaGrecqueStyleBrest" xlink:actuate="onRequest" xlink:href="java:pizza.impl.PizzaGrecqueStyleBrest" xlink:show="new" xlink:title="java:pizza.impl.PizzaGrecqueStyleBrest" xlink:type="simple"><rect codeLine="41" fill="#FEFECE" filter="url(#f1jwycw6ksx4ds)" height="48" id="PizzaGrecqueStyleBrest" style="stroke: #A80036; stroke-width: 1.5;" width="167" x="242.5" y="262"/><ellipse cx="257.5" cy="278" fill="#ADD1B2" rx="11" ry="11" style="stroke: #A80036; stroke-width: 1.0;"/><path d="M259.9731,284.1431 Q259.3921,284.4419 258.7529,284.5913 Q258.1138,284.7407 257.4082,284.7407 Q254.9014,284.7407 253.5815,283.0889 Q252.2617,281.437 252.2617,278.3159 Q252.2617,275.1865 253.5815,273.5347 Q254.9014,271.8828 257.4082,271.8828 Q258.1138,271.8828 258.7612,272.0322 Q259.4087,272.1816 259.9731,272.4805 L259.9731,275.2031 Q259.3423,274.6221 258.7488,274.3523 Q258.1553,274.0825 257.5244,274.0825 Q256.1797,274.0825 255.4949,275.1492 Q254.8101,276.2158 254.8101,278.3159 Q254.8101,280.4077 255.4949,281.4744 Q256.1797,282.541 257.5244,282.541 Q258.1553,282.541 258.7488,282.2712 Q259.3423,282.0015 259.9731,281.4204 Z "/><text fill="#000000" font-family="sans-serif" font-size="12" lengthAdjust="spacingAndGlyphs" textLength="135" x="271.5" y="282.5352">PizzaGrecqueStyleBrest</text><line style="stroke: #A80036; stroke-width: 1.5;" x1="243.5" x2="408.5" y1="294" y2="294"/><line style="stroke: #A80036; stroke-width: 1.5;" x1="243.5" x2="408.5" y1="302" y2="302"/></a><!--MD5=[45b8322271150144fcd2807ca81b5ea8]
class PizzaPoivronStyleStrasbourg--><a href="java:pizza.impl.PizzaPoivronStyleStrasbourg" target="_top" title="java:pizza.impl.PizzaPoivronStyleStrasbourg" xlink:actuate="onRequest" xlink:href="java:pizza.impl.PizzaPoivronStyleStrasbourg" xlink:show="new" xlink:title="java:pizza.impl.PizzaPoivronStyleStrasbourg" xlink:type="simple"><rect codeLine="46" fill="#FEFECE" filter="url(#f1jwycw6ksx4ds)" height="60.9551" id="PizzaPoivronStyleStrasbourg" style="stroke: #A80036; stroke-width: 1.5;" width="193" x="444.5" y="255.5"/><ellipse cx="459.5" cy="271.5" fill="#ADD1B2" rx="11" ry="11" style="stroke: #A80036; stroke-width: 1.0;"/><path d="M461.9731,277.6431 Q461.3921,277.9419 460.7529,278.0913 Q460.1138,278.2407 459.4082,278.2407 Q456.9014,278.2407 455.5815,276.5889 Q454.2617,274.937 454.2617,271.8159 Q454.2617,268.6865 455.5815,267.0347 Q456.9014,265.3828 459.4082,265.3828 Q460.1138,265.3828 460.7612,265.5322 Q461.4087,265.6816 461.9731,265.9805 L461.9731,268.7031 Q461.3423,268.1221 460.7488,267.8523 Q460.1553,267.5825 459.5244,267.5825 Q458.1797,267.5825 457.4949,268.6492 Q456.8101,269.7158 456.8101,271.8159 Q456.8101,273.9077 457.4949,274.9744 Q458.1797,276.041 459.5244,276.041 Q460.1553,276.041 460.7488,275.7712 Q461.3423,275.5015 461.9731,274.9204 Z "/><text fill="#000000" font-family="sans-serif" font-size="12" lengthAdjust="spacingAndGlyphs" textLength="161" x="473.5" y="276.0352">PizzaPoivronStyleStrasbourg</text><line style="stroke: #A80036; stroke-width: 1.5;" x1="445.5" x2="636.5" y1="287.5" y2="287.5"/><line style="stroke: #A80036; stroke-width: 1.5;" x1="445.5" x2="636.5" y1="295.5" y2="295.5"/><ellipse cx="455.5" cy="306.5" fill="#84BE84" rx="3" ry="3" style="stroke: #038048; stroke-width: 1.0;"/><text fill="#000000" font-family="sans-serif" font-size="11" lengthAdjust="spacingAndGlyphs" textLength="161" x="464.5" y="310.1348">PizzaPoivronStyleStrasbourg()</text></a><!--MD5=[1e5051c24b93418d3fe148946e2860c1]
class PizzaPoivronStyleBrest--><a href="java:pizza.impl.PizzaPoivronStyleBrest" target="_top" title="java:pizza.impl.PizzaPoivronStyleBrest" xlink:actuate="onRequest" xlink:href="java:pizza.impl.PizzaPoivronStyleBrest" xlink:show="new" xlink:title="java:pizza.impl.PizzaPoivronStyleBrest" xlink:type="simple"><rect codeLine="52" fill="#FEFECE" filter="url(#f1jwycw6ksx4ds)" height="48" id="PizzaPoivronStyleBrest" style="stroke: #A80036; stroke-width: 1.5;" width="160" x="673" y="262"/><ellipse cx="688" cy="278" fill="#ADD1B2" rx="11" ry="11" style="stroke: #A80036; stroke-width: 1.0;"/><path d="M690.4731,284.1431 Q689.8921,284.4419 689.2529,284.5913 Q688.6138,284.7407 687.9082,284.7407 Q685.4014,284.7407 684.0815,283.0889 Q682.7617,281.437 682.7617,278.3159 Q682.7617,275.1865 684.0815,273.5347 Q685.4014,271.8828 687.9082,271.8828 Q688.6138,271.8828 689.2612,272.0322 Q689.9087,272.1816 690.4731,272.4805 L690.4731,275.2031 Q689.8423,274.6221 689.2488,274.3523 Q688.6553,274.0825 688.0244,274.0825 Q686.6797,274.0825 685.9949,275.1492 Q685.3101,276.2158 685.3101,278.3159 Q685.3101,280.4077 685.9949,281.4744 Q686.6797,282.541 688.0244,282.541 Q688.6553,282.541 689.2488,282.2712 Q689.8423,282.0015 690.4731,281.4204 Z "/><text fill="#000000" font-family="sans-serif" font-size="12" lengthAdjust="spacingAndGlyphs" textLength="128" x="702" y="282.5352">PizzaPoivronStyleBrest</text><line style="stroke: #A80036; stroke-width: 1.5;" x1="674" x2="832" y1="294" y2="294"/><line style="stroke: #A80036; stroke-width: 1.5;" x1="674" x2="832" y1="302" y2="302"/></a><!--MD5=[223f093fbfcc42ffbe7c3564b974fe05]
class PizzaCheeseStyleBrest--><a href="java:pizza.impl.PizzaCheeseStyleBrest" target="_top" title="java:pizza.impl.PizzaCheeseStyleBrest" xlink:actuate="onRequest" xlink:href="java:pizza.impl.PizzaCheeseStyleBrest" xlink:show="new" xlink:title="java:pizza.impl.PizzaCheeseStyleBrest" xlink:type="simple"><rect codeLine="57" fill="#FEFECE" filter="url(#f1jwycw6ksx4ds)" height="60.9551" id="PizzaCheeseStyleBrest" style="stroke: #A80036; stroke-width: 1.5;" width="160" x="868" y="255.5"/><ellipse cx="883" cy="271.5" fill="#ADD1B2" rx="11" ry="11" style="stroke: #A80036; stroke-width: 1.0;"/><path d="M885.4731,277.6431 Q884.8921,277.9419 884.2529,278.0913 Q883.6138,278.2407 882.9082,278.2407 Q880.4014,278.2407 879.0815,276.5889 Q877.7617,274.937 877.7617,271.8159 Q877.7617,268.6865 879.0815,267.0347 Q880.4014,265.3828 882.9082,265.3828 Q883.6138,265.3828 884.2612,265.5322 Q884.9087,265.6816 885.4731,265.9805 L885.4731,268.7031 Q884.8423,268.1221 884.2488,267.8523 Q883.6553,267.5825 883.0244,267.5825 Q881.6797,267.5825 880.9949,268.6492 Q880.3101,269.7158 880.3101,271.8159 Q880.3101,273.9077 880.9949,274.9744 Q881.6797,276.041 883.0244,276.041 Q883.6553,276.041 884.2488,275.7712 Q884.8423,275.5015 885.4731,274.9204 Z "/><text fill="#000000" font-family="sans-serif" font-size="12" lengthAdjust="spacingAndGlyphs" textLength="128" x="897" y="276.0352">PizzaCheeseStyleBrest</text><line style="stroke: #A80036; stroke-width: 1.5;" x1="869" x2="1027" y1="287.5" y2="287.5"/><line style="stroke: #A80036; stroke-width: 1.5;" x1="869" x2="1027" y1="295.5" y2="295.5"/><ellipse cx="879" cy="306.5" fill="#84BE84" rx="3" ry="3" style="stroke: #038048; stroke-width: 1.0;"/><text fill="#000000" font-family="sans-serif" font-size="11" lengthAdjust="spacingAndGlyphs" textLength="126" x="888" y="310.1348">PizzaCheeseStyleBrest()</text></a><!--MD5=[85a053ec8389221ac2b4d0d444dc406d]
class PizzaCheeseStyleStrasbourg--><a href="java:pizza.impl.PizzaCheeseStyleStrasbourg" target="_top" title="java:pizza.impl.PizzaCheeseStyleStrasbourg" xlink:actuate="onRequest" xlink:href="java:pizza.impl.PizzaCheeseStyleStrasbourg" xlink:show="new" xlink:title="java:pizza.impl.PizzaCheeseStyleStrasbourg" xlink:type="simple"><rect codeLine="63" fill="#FEFECE" filter="url(#f1jwycw6ksx4ds)" height="73.9102" id="PizzaCheeseStyleStrasbourg" style="stroke: #A80036; stroke-width: 1.5;" width="193" x="1063.5" y="249"/><ellipse cx="1078.5" cy="265" fill="#ADD1B2" rx="11" ry="11" style="stroke: #A80036; stroke-width: 1.0;"/><path d="M1080.9731,271.1431 Q1080.3921,271.4419 1079.7529,271.5913 Q1079.1138,271.7407 1078.4082,271.7407 Q1075.9014,271.7407 1074.5815,270.0889 Q1073.2617,268.437 1073.2617,265.3159 Q1073.2617,262.1865 1074.5815,260.5347 Q1075.9014,258.8828 1078.4082,258.8828 Q1079.1138,258.8828 1079.7612,259.0322 Q1080.4087,259.1816 1080.9731,259.4805 L1080.9731,262.2031 Q1080.3423,261.6221 1079.7488,261.3523 Q1079.1553,261.0825 1078.5244,261.0825 Q1077.1797,261.0825 1076.4949,262.1492 Q1075.8101,263.2158 1075.8101,265.3159 Q1075.8101,267.4077 1076.4949,268.4744 Q1077.1797,269.541 1078.5244,269.541 Q1079.1553,269.541 1079.7488,269.2712 Q1080.3423,269.0015 1080.9731,268.4204 Z "/><text fill="#000000" font-family="sans-serif" font-size="12" lengthAdjust="spacingAndGlyphs" textLength="161" x="1092.5" y="269.5352">PizzaCheeseStyleStrasbourg</text><line style="stroke: #A80036; stroke-width: 1.5;" x1="1064.5" x2="1255.5" y1="281" y2="281"/><line style="stroke: #A80036; stroke-width: 1.5;" x1="1064.5" x2="1255.5" y1="289" y2="289"/><ellipse cx="1074.5" cy="300" fill="#84BE84" rx="3" ry="3" style="stroke: #038048; stroke-width: 1.0;"/><text fill="#000000" font-family="sans-serif" font-size="11" lengthAdjust="spacingAndGlyphs" textLength="159" x="1083.5" y="303.6348">PizzaCheeseStyleStrasbourg()</text><ellipse cx="1074.5" cy="312.9551" fill="#84BE84" rx="3" ry="3" style="stroke: #038048; stroke-width: 1.0;"/><text fill="#000000" font-family="sans-serif" font-size="11" lengthAdjust="spacingAndGlyphs" textLength="51" x="1083.5" y="316.5898">void cut()</text></a><!--MD5=[e93015e5b927759d18c8b847a9ac5fc1]
class Pizzeria--><a href="java:pizzeria.Pizzeria" target="_top" title="java:pizzeria.Pizzeria" xlink:actuate="onRequest" xlink:href="java:pizzeria.Pizzeria" xlink:show="new" xlink:title="java:pizzeria.Pizzeria" xlink:type="simple"><rect codeLine="93" fill="#FEFECE" filter="url(#f1jwycw6ksx4ds)" height="86.8652" id="Pizzeria" style="stroke: #A80036; stroke-width: 1.5;" width="213" x="1434.5" y="46"/><ellipse cx="1513.75" cy="62" fill="#ADD1B2" rx="11" ry="11" style="stroke: #A80036; stroke-width: 1.0;"/><path d="M1516.2231,68.1431 Q1515.6421,68.4419 1515.0029,68.5913 Q1514.3638,68.7407 1513.6582,68.7407 Q1511.1514,68.7407 1509.8315,67.0889 Q1508.5117,65.437 1508.5117,62.3159 Q1508.5117,59.1865 1509.8315,57.5347 Q1511.1514,55.8828 1513.6582,55.8828 Q1514.3638,55.8828 1515.0112,56.0322 Q1515.6587,56.1816 1516.2231,56.4805 L1516.2231,59.2031 Q1515.5923,58.6221 1514.9988,58.3523 Q1514.4053,58.0825 1513.7744,58.0825 Q1512.4297,58.0825 1511.7449,59.1492 Q1511.0601,60.2158 1511.0601,62.3159 Q1511.0601,64.4077 1511.7449,65.4744 Q1512.4297,66.541 1513.7744,66.541 Q1514.4053,66.541 1514.9988,66.2712 Q1515.5923,66.0015 1516.2231,65.4204 Z "/><text fill="#000000" font-family="sans-serif" font-size="12" lengthAdjust="spacingAndGlyphs" textLength="46" x="1534.25" y="66.5352">Pizzeria</text><line style="stroke: #A80036; stroke-width: 1.5;" x1="1435.5" x2="1646.5" y1="78" y2="78"/><line style="stroke: #A80036; stroke-width: 1.5;" x1="1435.5" x2="1646.5" y1="86" y2="86"/><ellipse cx="1445.5" cy="97" fill="#84BE84" rx="3" ry="3" style="stroke: #038048; stroke-width: 1.0;"/><text fill="#000000" font-family="sans-serif" font-size="11" lengthAdjust="spacingAndGlyphs" textLength="153" x="1454.5" y="100.6348">Pizza orderPizza(String type)</text><ellipse cx="1445.5" cy="109.9551" fill="#84BE84" rx="3" ry="3" style="stroke: #038048; stroke-width: 1.0;"/><text fill="#000000" font-family="sans-serif" font-size="11" lengthAdjust="spacingAndGlyphs" textLength="187" x="1454.5" y="113.5898">Pizzeria(PizzaFactory pizzaFactory)</text><polygon fill="#FFFF44" points="1445.5,117.9102,1449.5,121.9102,1445.5,125.9102,1441.5,121.9102" style="stroke: #B38D22; stroke-width: 1.0;"/><text fill="#000000" font-family="sans-serif" font-size="11" lengthAdjust="spacingAndGlyphs" textLength="156" x="1454.5" y="126.5449">Pizza createPizza(String type)</text></a><!--MD5=[81e2f594dce7d69418c8e8ac2d79b2b1]
class PizzeriaFactory--><a href="java:pizzeria.factory.PizzeriaFactory" target="_top" title="java:pizzeria.factory.PizzeriaFactory" xlink:actuate="onRequest" xlink:href="java:pizzeria.factory.PizzeriaFactory" xlink:show="new" xlink:title="java:pizzeria.factory.PizzeriaFactory" xlink:type="simple"><rect codeLine="78" fill="#FEFECE" filter="url(#f1jwycw6ksx4ds)" height="99.8203" id="PizzeriaFactory" style="stroke: #A80036; stroke-width: 1.5;" width="192" x="1683" y="39.5"/><ellipse cx="1731.25" cy="55.5" fill="#ADD1B2" rx="11" ry="11" style="stroke: #A80036; stroke-width: 1.0;"/><path d="M1733.7231,61.6431 Q1733.1421,61.9419 1732.5029,62.0913 Q1731.8638,62.2407 1731.1582,62.2407 Q1728.6514,62.2407 1727.3315,60.5889 Q1726.0117,58.937 1726.0117,55.8159 Q1726.0117,52.6865 1727.3315,51.0347 Q1728.6514,49.3828 1731.1582,49.3828 Q1731.8638,49.3828 1732.5112,49.5322 Q1733.1587,49.6816 1733.7231,49.9805 L1733.7231,52.7031 Q1733.0923,52.1221 1732.4988,51.8523 Q1731.9053,51.5825 1731.2744,51.5825 Q1729.9297,51.5825 1729.2449,52.6492 Q1728.5601,53.7158 1728.5601,55.8159 Q1728.5601,57.9077 1729.2449,58.9744 Q1729.9297,60.041 1731.2744,60.041 Q1731.9053,60.041 1732.4988,59.7712 Q1733.0923,59.5015 1733.7231,58.9204 Z "/><text fill="#000000" font-family="sans-serif" font-size="12" lengthAdjust="spacingAndGlyphs" textLength="87" x="1751.75" y="60.0352">PizzeriaFactory</text><line style="stroke: #A80036; stroke-width: 1.5;" x1="1684" x2="1874" y1="71.5" y2="71.5"/><polygon fill="none" points="1694,78.5,1690,84.5,1698,84.5" style="stroke: #1963A0; stroke-width: 1.0;"/><text fill="#000000" font-family="sans-serif" font-size="11" lengthAdjust="spacingAndGlyphs" text-decoration="underline" textLength="166" x="1703" y="86.1348">PizzeriaFactory uniqueInstance</text><line style="stroke: #A80036; stroke-width: 1.5;" x1="1684" x2="1874" y1="92.4551" y2="92.4551"/><rect fill="#F24D5C" height="6" style="stroke: #C82930; stroke-width: 1.0;" width="6" x="1691" y="100.4551"/><text fill="#000000" font-family="sans-serif" font-size="11" lengthAdjust="spacingAndGlyphs" textLength="89" x="1703" y="107.0898">PizzeriaFactory()</text><ellipse cx="1694" cy="116.4102" fill="#84BE84" rx="3" ry="3" style="stroke: #038048; stroke-width: 1.0;"/><text fill="#000000" font-family="sans-serif" font-size="11" lengthAdjust="spacingAndGlyphs" text-decoration="underline" textLength="154" x="1703" y="120.0449">PizzeriaFactory getInstance()</text><ellipse cx="1694" cy="129.3652" fill="#84BE84" rx="3" ry="3" style="stroke: #038048; stroke-width: 1.0;"/><text fill="#000000" font-family="sans-serif" font-size="11" lengthAdjust="spacingAndGlyphs" textLength="149" x="1703" y="133">Pizzeria create(String name)</text></a><!--MD5=[f73c7f81cbc98956c24f2d6ecac4e22c]
class PizzeriaBrest--><a href="java:pizzeria.impl.PizzeriaBrest" target="_top" title="java:pizzeria.impl.PizzeriaBrest" xlink:actuate="onRequest" xlink:href="java:pizzeria.impl.PizzeriaBrest" xlink:show="new" xlink:title="java:pizzeria.impl.PizzeriaBrest" xlink:type="simple"><rect codeLine="84" fill="#FEFECE" filter="url(#f1jwycw6ksx4ds)" height="60.9551" id="PizzeriaBrest" style="stroke: #A80036; stroke-width: 1.5;" width="107" x="1487.5" y="255.5"/><ellipse cx="1502.5" cy="271.5" fill="#ADD1B2" rx="11" ry="11" style="stroke: #A80036; stroke-width: 1.0;"/><path d="M1504.9731,277.6431 Q1504.3921,277.9419 1503.7529,278.0913 Q1503.1138,278.2407 1502.4082,278.2407 Q1499.9014,278.2407 1498.5815,276.5889 Q1497.2617,274.937 1497.2617,271.8159 Q1497.2617,268.6865 1498.5815,267.0347 Q1499.9014,265.3828 1502.4082,265.3828 Q1503.1138,265.3828 1503.7612,265.5322 Q1504.4087,265.6816 1504.9731,265.9805 L1504.9731,268.7031 Q1504.3423,268.1221 1503.7488,267.8523 Q1503.1553,267.5825 1502.5244,267.5825 Q1501.1797,267.5825 1500.4949,268.6492 Q1499.8101,269.7158 1499.8101,271.8159 Q1499.8101,273.9077 1500.4949,274.9744 Q1501.1797,276.041 1502.5244,276.041 Q1503.1553,276.041 1503.7488,275.7712 Q1504.3423,275.5015 1504.9731,274.9204 Z "/><text fill="#000000" font-family="sans-serif" font-size="12" lengthAdjust="spacingAndGlyphs" textLength="75" x="1516.5" y="276.0352">PizzeriaBrest</text><line style="stroke: #A80036; stroke-width: 1.5;" x1="1488.5" x2="1593.5" y1="287.5" y2="287.5"/><line style="stroke: #A80036; stroke-width: 1.5;" x1="1488.5" x2="1593.5" y1="295.5" y2="295.5"/><ellipse cx="1498.5" cy="306.5" fill="#84BE84" rx="3" ry="3" style="stroke: #038048; stroke-width: 1.0;"/><text fill="#000000" font-family="sans-serif" font-size="11" lengthAdjust="spacingAndGlyphs" textLength="76" x="1507.5" y="310.1348">PizzeriaBrest()</text></a><!--MD5=[fc39ac621f6918947822dc51dd51b739]
class PizzeriaStrasbourg--><a href="java:pizzeria.impl.PizzeriaStrasbourg" target="_top" title="java:pizzeria.impl.PizzeriaStrasbourg" xlink:actuate="onRequest" xlink:href="java:pizzeria.impl.PizzeriaStrasbourg" xlink:show="new" xlink:title="java:pizzeria.impl.PizzeriaStrasbourg" xlink:type="simple"><rect codeLine="90" fill="#FEFECE" filter="url(#f1jwycw6ksx4ds)" height="60.9551" id="PizzeriaStrasbourg" style="stroke: #A80036; stroke-width: 1.5;" width="140" x="1630" y="255.5"/><ellipse cx="1645" cy="271.5" fill="#ADD1B2" rx="11" ry="11" style="stroke: #A80036; stroke-width: 1.0;"/><path d="M1647.4731,277.6431 Q1646.8921,277.9419 1646.2529,278.0913 Q1645.6138,278.2407 1644.9082,278.2407 Q1642.4014,278.2407 1641.0815,276.5889 Q1639.7617,274.937 1639.7617,271.8159 Q1639.7617,268.6865 1641.0815,267.0347 Q1642.4014,265.3828 1644.9082,265.3828 Q1645.6138,265.3828 1646.2612,265.5322 Q1646.9087,265.6816 1647.4731,265.9805 L1647.4731,268.7031 Q1646.8423,268.1221 1646.2488,267.8523 Q1645.6553,267.5825 1645.0244,267.5825 Q1643.6797,267.5825 1642.9949,268.6492 Q1642.3101,269.7158 1642.3101,271.8159 Q1642.3101,273.9077 1642.9949,274.9744 Q1643.6797,276.041 1645.0244,276.041 Q1645.6553,276.041 1646.2488,275.7712 Q1646.8423,275.5015 1647.4731,274.9204 Z "/><text fill="#000000" font-family="sans-serif" font-size="12" lengthAdjust="spacingAndGlyphs" textLength="108" x="1659" y="276.0352">PizzeriaStrasbourg</text><line style="stroke: #A80036; stroke-width: 1.5;" x1="1631" x2="1769" y1="287.5" y2="287.5"/><line style="stroke: #A80036; stroke-width: 1.5;" x1="1631" x2="1769" y1="295.5" y2="295.5"/><ellipse cx="1641" cy="306.5" fill="#84BE84" rx="3" ry="3" style="stroke: #038048; stroke-width: 1.0;"/><text fill="#000000" font-family="sans-serif" font-size="11" lengthAdjust="spacingAndGlyphs" textLength="109" x="1650" y="310.1348">PizzeriaStrasbourg()</text></a><!--MD5=[f2eadd948328331a5fa64921804f7bf6]
reverse link PizzaFactory to PizzaFactoryStrasbourg--><path codeLine="26" d="M1332.61,331.58 C1317.98,348.14 1301.3,367.01 1286.34,383.95 " fill="none" id="PizzaFactory-backto-PizzaFactoryStrasbourg" style="stroke: #A80036; stroke-width: 1.0;"/><polygon fill="none" points="1327.41,326.9,1345.89,316.55,1337.9,336.17,1327.41,326.9" style="stroke: #A80036; stroke-width: 1.0;"/><!--MD5=[e20a1ef12991a268c73f4c1e10d39bfd]
reverse link PizzaFactory to PizzaFactoryBrest--><path codeLine="35" d="M1411.31,331.83 C1425.77,348.33 1442.22,367.1 1457,383.95 " fill="none" id="PizzaFactory-backto-PizzaFactoryBrest" style="stroke: #A80036; stroke-width: 1.0;"/><polygon fill="none" points="1405.82,336.2,1397.9,316.55,1416.35,326.97,1405.82,336.2" style="stroke: #A80036; stroke-width: 1.0;"/><!--MD5=[f1a69750e381cc5eed7314f09bb8d8c2]
reverse link Pizza to PizzaGrecqueStyleStrasbourg--><path codeLine="40" d="M537.28,171.87 C537.19,171.91 537.09,171.96 537,172 C472.38,202.41 293.84,230.02 225,249 C210.55,252.99 195.17,257.48 180.47,261.91 " fill="none" id="Pizza-backto-PizzaGrecqueStyleStrasbourg" style="stroke: #A80036; stroke-width: 1.0;"/><polygon fill="none" points="534.03,165.67,554.99,162.55,540.55,178.06,534.03,165.67" style="stroke: #A80036; stroke-width: 1.0;"/><!--MD5=[cdce69627d574805825c6524b92fff2e]
reverse link Pizza to PizzaGrecqueStyleBrest--><path codeLine="45" d="M538.11,171.29 C537.74,171.53 537.37,171.77 537,172 C482.76,206.36 417.14,240.4 373.63,262 " fill="none" id="Pizza-backto-PizzaGrecqueStyleBrest" style="stroke: #A80036; stroke-width: 1.0;"/><polygon fill="none" points="534.4,165.35,554.96,160.19,542.11,177.04,534.4,165.35" style="stroke: #A80036; stroke-width: 1.0;"/><!--MD5=[cafca24c1b999e85e173080b2ad95292]
reverse link Pizza to PizzaPoivronStyleStrasbourg--><path codeLine="51" d="M592.81,189.93 C579.78,213.84 566.84,237.58 557.16,255.36 " fill="none" id="Pizza-backto-PizzaPoivronStyleStrasbourg" style="stroke: #A80036; stroke-width: 1.0;"/><polygon fill="none" points="586.79,186.35,602.51,172.14,599.08,193.05,586.79,186.35" style="stroke: #A80036; stroke-width: 1.0;"/><!--MD5=[0b08f0c611f55ddeba8790b5e583608e]
reverse link Pizza to PizzaPoivronStyleBrest--><path codeLine="56" d="M701.1,189.77 C715.77,216.68 730.32,243.39 740.27,261.64 " fill="none" id="Pizza-backto-PizzaPoivronStyleBrest" style="stroke: #A80036; stroke-width: 1.0;"/><polygon fill="none" points="694.92,193.05,691.49,172.14,707.21,186.35,694.92,193.05" style="stroke: #A80036; stroke-width: 1.0;"/><!--MD5=[680a910c5c9b714ff8c9424ad900857c]
reverse link Pizza to PizzaCheeseStyleBrest--><path codeLine="62" d="M756.44,161.22 C806.63,193.65 863.42,230.34 902.04,255.3 " fill="none" id="Pizza-backto-PizzaCheeseStyleBrest" style="stroke: #A80036; stroke-width: 1.0;"/><polygon fill="none" points="752.35,166.91,739.36,150.18,759.95,155.15,752.35,166.91" style="stroke: #A80036; stroke-width: 1.0;"/><!--MD5=[abb8cd07b9e3bab4f4d5f7a0c9b2040f]
reverse link Pizza to PizzaCheeseStyleStrasbourg--><path codeLine="69" d="M757.95,132.57 C849.48,167.27 977.96,215.98 1064.85,248.92 " fill="none" id="Pizza-backto-PizzaCheeseStyleStrasbourg" style="stroke: #A80036; stroke-width: 1.0;"/><polygon fill="none" points="755.23,139.02,739.01,125.38,760.19,125.93,755.23,139.02" style="stroke: #A80036; stroke-width: 1.0;"/><!--MD5=[b76752e2f7ab5b4bbeaca634382320ae]
link Pizzeria to PizzaFactory--><path codeLine="77" d="M1503.91,133.18 C1473.01,168.75 1429.59,218.72 1401.14,251.47 " fill="none" id="Pizzeria-to-PizzaFactory" style="stroke: #A80036; stroke-width: 1.0;"/><polygon fill="#A80036" points="1397.74,255.37,1406.6679,251.2116,1401.0244,251.6,1400.636,245.9565,1397.74,255.37" style="stroke: #A80036; stroke-width: 1.0;"/><text fill="#000000" font-family="sans-serif" font-size="13" lengthAdjust="spacingAndGlyphs" textLength="79" x="1443" y="215.5684">pizzaFactory</text><text fill="#000000" font-family="sans-serif" font-size="13" lengthAdjust="spacingAndGlyphs" textLength="8" x="1394.4956" y="244.6363">1</text><!--MD5=[cff7a2dd66c2e67eeabfb51f41a0c031]
reverse link Pizzeria to PizzeriaBrest--><path codeLine="89" d="M1541,153.47 C1541,187.69 1541,228.4 1541,255.37 " fill="none" id="Pizzeria-backto-PizzeriaBrest" style="stroke: #A80036; stroke-width: 1.0;"/><polygon fill="none" points="1534,153.18,1541,133.18,1548,153.18,1534,153.18" style="stroke: #A80036; stroke-width: 1.0;"/><!--MD5=[4ba650fa2b42d14685ff826465eba054]
reverse link Pizzeria to PizzeriaStrasbourg--><path codeLine="95" d="M1588.56,148.67 C1617.29,183.82 1652.69,227.13 1675.78,255.37 " fill="none" id="Pizzeria-backto-PizzeriaStrasbourg" style="stroke: #A80036; stroke-width: 1.0;"/><polygon fill="none" points="1583.13,153.1,1575.89,133.18,1593.97,144.24,1583.13,153.1" style="stroke: #A80036; stroke-width: 1.0;"/><!--MD5=[2d616a720ef3857d3271b558c49194f9]
@startuml
class PizzaTestDrive [[java:appli.PizzaTestDrive]] {
	+{static}void main(String[] args)
}
abstract class Pizza [[java:pizza.Pizza]] {
	#String name
	#String crust
	#String sauce
	#ArrayList<String> garnitures
	+void prepare()
	+void bake()
	+void cut()
	+void wrap()
	+String getName()
}
abstract class PizzaFactory [[java:pizza.factory.PizzaFactory]] {
	+{abstract}Pizza create(String name)
}
class PizzaFactoryStrasbourg [[java:pizza.factory.impl.PizzaFactoryStrasbourg]] {
	~{static}PizzaFactoryStrasbourg uniqueInstance
	#PizzaFactoryStrasbourg()
	+Pizza create(String name)
	+{static}PizzaFactoryStrasbourg getInstance()
}
class PizzaFactory [[java:pizza.factory.PizzaFactory]] {
}
PizzaFactory <|- - PizzaFactoryStrasbourg
class PizzaFactoryBrest [[java:pizza.factory.impl.PizzaFactoryBrest]] {
	~{static}PizzaFactoryBrest uniqueInstance
	#PizzaFactoryBrest()
	+Pizza create(String name)
	+{static}PizzaFactoryBrest getInstance()
}
class PizzaFactory [[java:pizza.factory.PizzaFactory]] {
}
PizzaFactory <|- - PizzaFactoryBrest
class PizzaGrecqueStyleStrasbourg [[java:pizza.impl.PizzaGrecqueStyleStrasbourg]] {
}
class Pizza [[java:pizza.Pizza]] {
}
Pizza <|- - PizzaGrecqueStyleStrasbourg
class PizzaGrecqueStyleBrest [[java:pizza.impl.PizzaGrecqueStyleBrest]] {
}
class Pizza [[java:pizza.Pizza]] {
}
Pizza <|- - PizzaGrecqueStyleBrest
class PizzaPoivronStyleStrasbourg [[java:pizza.impl.PizzaPoivronStyleStrasbourg]] {
	+PizzaPoivronStyleStrasbourg()
}
class Pizza [[java:pizza.Pizza]] {
}
Pizza <|- - PizzaPoivronStyleStrasbourg
class PizzaPoivronStyleBrest [[java:pizza.impl.PizzaPoivronStyleBrest]] {
}
class Pizza [[java:pizza.Pizza]] {
}
Pizza <|- - PizzaPoivronStyleBrest
class PizzaCheeseStyleBrest [[java:pizza.impl.PizzaCheeseStyleBrest]] {
	+PizzaCheeseStyleBrest()
}
class Pizza [[java:pizza.Pizza]] {
}
Pizza <|- - PizzaCheeseStyleBrest
class PizzaCheeseStyleStrasbourg [[java:pizza.impl.PizzaCheeseStyleStrasbourg]] {
	+PizzaCheeseStyleStrasbourg()
	+void cut()
}
class Pizza [[java:pizza.Pizza]] {
}
Pizza <|- - PizzaCheeseStyleStrasbourg
abstract class Pizzeria [[java:pizzeria.Pizzeria]] {
	+Pizza orderPizza(String type)
	+Pizzeria(PizzaFactory pizzaFactory)
	#Pizza createPizza(String type)
}
class PizzaFactory [[java:pizza.factory.PizzaFactory]] {
}
Pizzeria - -> "1" PizzaFactory : pizzaFactory
class PizzeriaFactory [[java:pizzeria.factory.PizzeriaFactory]] {
	~{static}PizzeriaFactory uniqueInstance
	-PizzeriaFactory()
	+{static}PizzeriaFactory getInstance()
	+Pizzeria create(String name)
}
class PizzeriaBrest [[java:pizzeria.impl.PizzeriaBrest]] {
	+PizzeriaBrest()
}
class Pizzeria [[java:pizzeria.Pizzeria]] {
}
Pizzeria <|- - PizzeriaBrest
class PizzeriaStrasbourg [[java:pizzeria.impl.PizzeriaStrasbourg]] {
	+PizzeriaStrasbourg()
}
class Pizzeria [[java:pizzeria.Pizzeria]] {
}
Pizzeria <|- - PizzeriaStrasbourg
@enduml

PlantUML version 1.2020.18(Wed Sep 30 21:40:44 CEST 2020)
(GPL source distribution)
Java Runtime: OpenJDK Runtime Environment
JVM: OpenJDK 64-Bit Server VM
Default Encoding: UTF-8
Language: fr
Country: FR
--></g></svg>